# xmcd
#
# Track frame offsets:
# 150
# 13730
# 34605
# 54575
# 86625
# 100935
# 119027
# 139195
# 151320
# 167977
# 184580
#
# Disc length: 2682 seconds
#
#
# Revision: 0
# Processed by: cddbd v1.4PL0 Copyright (c) Steve Scherf et al.
# Submitted via: FreeRIP 2.51 
#
DISCID=910a780b
DTITLE=Lisa Otey - Blame it on My Youth
DYEAR=1994
DGENRE=Blues
TTITLE0=No Soap, No Hope, No Mouse, No House Blues
TTITLE1=I Just Want To Make Love to You
TTITLE2=Bmane it on My Youth
TTITLE3=Black Coffee in the Evening
TTITLE4=Route 66
TTITLE5=It Never Entered My Mind
TTITLE6=Confessin' The Blues
TTITLE7=Softly, as in a Morning Sunrise
TTITLE8=The Girl Who Use To Be Me
TTITLE9=Waltz For The New Age
TTITLE10=I'aint Nobody's Bizness If I Do
EXTD=
EXTT0=
EXTT1=
EXTT2=
EXTT3=
EXTT4=
EXTT5=
EXTT6=
EXTT7=
EXTT8=
EXTT9=
EXTT10=
PLAYORDER=
